<svg xmlns="http://www.w3.org/2000/svg" width="1440" height="320" viewBox="0 0 1440 320" fill="none">
  <path d="M0 242C113 202 228 170 342 170c142 0 245 54 375 54 149 0 247-70 386-70 125 0 214 55 337 81v85H0v-78Z" fill="#0E7A3E"/>
  <path d="M0 268c134-42 230-92 382-92 153 0 242 58 382 58 140 0 221-52 365-52 127 0 212 38 311 66v72H0v-52Z" fill="#12243B" fill-opacity=".9"/>
  <path d="M0 292c125-22 234-52 353-52 161 0 264 52 420 52 136 0 227-38 351-38 110 0 208 23 316 40v26H0v-28Z" fill="#D6A21D"/>
</svg>
